<svg xmlns="http://www.w3.org/2000/svg" width="32" height="32" fill="none">
  <path fill="#FD9222" d="M16 2.667c-7.334 0-13.334 6-13.334 13.333s6 13.333 13.334 13.333c7.333 0 13.333-6 13.333-13.333S23.333 2.667 16 2.667Zm0 24c-5.867 0-10.667-4.8-10.667-10.667S10.133 5.333 16 5.333c5.866 0 10.666 4.8 10.666 10.667S21.866 26.667 16 26.667Z"/>
  <path fill="#FD9222" d="M17.733 14.667h-3.466c-.667 0-1.2-.534-1.2-1.2 0-.667.533-1.2 1.2-1.2H19.2c.8 0 1.333-.534 1.333-1.334S20 9.6 19.2 9.6h-1.867V8.4c0-.8-.533-1.333-1.333-1.333-.8 0-1.333.533-1.333 1.333v1.2h-.4a3.87 3.87 0 0 0-3.867 3.867 3.87 3.87 0 0 0 3.867 3.866H17.6c.667 0 1.2.534 1.2 1.2 0 .667-.533 1.2-1.2 1.2h-4.933c-.8 0-1.334.534-1.334 1.334s.534 1.333 1.334 1.333h2v1.2c0 .8.533 1.333 1.333 1.333.8 0 1.333-.533 1.333-1.333v-1.2h.4a3.87 3.87 0 0 0 3.867-3.867 3.87 3.87 0 0 0-3.867-3.866Z"/>
</svg>
